# Matthew Haywood - Mesh Simplification Project output file.
# Electronic and Electrical Engineering, The University of Nottingham.
# Vertices: 9 Triangles: 12
mtllib outputCube.mtl
o Cube 
v 1 1 -1
v 1 -1 -1
v 1 1 1
v 1 -1 1
v -1 1 -1
v -1 -1 -1
v -1 1 1
v -1 -1 1
vn 0 1 0
vn 0 1 -0
vn 0 -0 1
vn 0 0 1
vn -1 0 0
vn -1 0 0
vn 0 -1 0
vn 0 -1 0
vn 1 0 0
vn 1 0 0
vn 0 0 -1
vn 0 0 -1
g Cube_Cube_Material
usemtl Material1
s off 
f 4//3 3//3 7//3
f 4//4 7//4 8//4
f 2//9 1//9 3//9
f 2//10 3//10 4//10
g Cube_Cube_Material
usemtl default
s off 
f 1//1 5//1 7//1
f 1//2 7//2 3//2
f 8//5 7//5 5//5
f 8//6 5//6 6//6
f 6//7 2//7 4//7
f 6//8 4//8 8//8
f 6//11 5//11 1//11
f 6//12 1//12 2//12
